<?xml version="1.0"?><svg xmlns="http://www.w3.org/2000/svg"  viewBox="0 0 30 30" width="30px" height="30px">    <path d="M 15 3 A 2 2 0 0 0 14.599609 3.0429688 L 14.597656 3.0410156 L 4.6289062 5.0351562 L 4.6269531 5.0371094 A 2 2 0 0 0 3 7 L 3 23 A 2 2 0 0 0 4.6289062 24.964844 L 14.597656 26.958984 A 2 2 0 0 0 15 27 A 2 2 0 0 0 17 25 L 17 5 A 2 2 0 0 0 15 3 z M 19 6 L 19 8 L 19 10 L 19 12 C 20.034094 12 20.94693 11.477652 21.486328 10.681641 C 22.25202 11.121532 22.88107 11.751461 23.320312 12.517578 A 3 3 0 0 0 22 15 A 3 3 0 0 0 23.320312 17.484375 C 22.881099 18.249829 22.251524 18.878753 21.486328 19.318359 C 20.94693 18.522348 20.034094 18 19 18 L 19 20 L 19 22 L 19 24 C 20.544077 24 21.800676 22.829821 21.966797 21.330078 C 23.437835 20.636449 24.627916 19.448062 25.324219 17.978516 A 3 3 0 0 0 28 15 A 3 3 0 0 0 25.322266 12.019531 C 24.625803 10.551069 23.437048 9.3631801 21.966797 8.6699219 C 21.800676 7.1701794 20.544077 6 19 6 z M 10.435547 9.9980469 C 11.811547 9.9980469 12.520609 10.243141 12.849609 10.369141 L 12.849609 12.386719 C 12.687609 12.274719 11.811641 11.712891 10.556641 11.712891 C 9.0096406 11.712891 8.9316406 12.540453 8.9316406 12.689453 C 8.9316406 14.309453 13.275391 13.920188 13.275391 17.117188 C 13.275391 18.849188 12.0845 20.001953 9.4375 20.001953 C 7.9345 20.001953 7.0296875 19.642891 6.6796875 19.462891 L 6.6796875 17.304688 C 7.0706875 17.632687 7.94575 18.287109 9.34375 18.287109 C 9.61775 18.287109 10.980469 18.248547 10.980469 17.310547 C 10.980469 15.615547 6.6367188 16.026094 6.6367188 12.871094 C 6.6367188 11.549094 7.4615469 9.9980469 10.435547 9.9980469 z"/></svg>