<svg xmlns="http://www.w3.org/2000/svg"  viewBox="0 0 50 50" width="50px" height="50px"><path d="M 28.847656 8 C 28.800781 8.015625 28.753906 8.066406 28.714844 8.085938 C 28.472656 8.207031 28.238281 8.359375 28 8.5 L 28 8.617188 C 28.238281 8.738281 28.476563 8.867188 28.71875 8.976563 C 28.8125 9.019531 28.914063 9.03125 28.964844 8.789063 C 29.007813 8.578125 29.011719 8.355469 28.96875 8.152344 C 28.9375 8.015625 28.894531 7.988281 28.847656 8 Z M 28.519531 10 C 27.738281 11.65625 26.878906 13.28125 26 14.917969 C 26.289063 14.980469 26.535156 14.996094 26.78125 15 L 30.296875 15 C 31.097656 14.992188 31.136719 14.949219 30.804688 14.285156 C 30.125 12.925781 29.425781 11.574219 28.734375 10.21875 C 28.691406 10.140625 28.675781 10.039063 28.519531 10 Z M 22.984375 15.085938 C 22.960938 15.085938 22.9375 15.085938 22.914063 15.089844 C 10.640625 16.148438 1 26.460938 1 39 L 1 41 L 1.832031 41 C 1.941406 41.019531 2.050781 41.019531 2.15625 41 L 3 41 L 3 39 C 3 27.484375 11.828125 18.050781 23.085938 17.082031 C 23.621094 17.035156 24.023438 16.570313 23.996094 16.035156 C 23.96875 15.5 23.523438 15.078125 22.984375 15.085938 Z M 30.070313 16.003906 C 30.070313 16.003906 27.519531 15.992188 27 16.011719 C 26.558594 16.027344 26.460938 16.144531 26.449219 16.605469 C 26.4375 16.894531 26.429688 17.1875 26.222656 17.410156 C 25.960938 17.695313 25.945313 18.011719 26.09375 18.34375 C 26.347656 18.90625 26.578125 18.925781 26.886719 18.945313 C 27.824219 19.003906 28.761719 19.023438 29.699219 19 C 30.445313 18.980469 30.625 18.636719 30.765625 18.46875 C 31.078125 18.109375 31.054688 17.722656 30.835938 17.328125 C 30.691406 17.066406 30.546875 16.804688 30.558594 16.496094 C 30.566406 16.132813 30.386719 16.003906 30.070313 16.003906 Z M 34.003906 16.824219 C 33.523438 16.8125 33.105469 17.148438 33.007813 17.621094 C 32.910156 18.09375 33.164063 18.566406 33.609375 18.75 C 41.476563 22.097656 47 29.898438 47 39 L 47 41 L 47.832031 41 C 47.941406 41.019531 48.050781 41.019531 48.15625 41 L 49 41 L 49 39 C 49 29.085938 42.980469 20.5625 34.390625 16.90625 C 34.269531 16.855469 34.136719 16.824219 34.003906 16.824219 Z M 23.890625 18 C 23.847656 17.996094 23.796875 18.011719 23.757813 18.03125 C 23.503906 18.136719 23.253906 18.261719 23 18.375 C 23 18.425781 23 18.476563 23 18.523438 C 23.242188 18.664063 23.480469 18.8125 23.722656 18.9375 C 23.8125 18.984375 23.941406 19.082031 23.972656 18.859375 C 24.007813 18.636719 24.003906 18.371094 23.976563 18.140625 C 23.964844 18.042969 23.929688 18.007813 23.890625 18 Z M 26.328125 20 C 26.113281 19.996094 26.023438 20.070313 26 20.265625 C 25.960938 20.585938 26 20.8125 26 21.105469 C 26 21.378906 25.964844 21.304688 25.964844 21.800781 C 25.964844 22.050781 25.050781 22.011719 24.789063 22 C 24.511719 22 24.4375 21.894531 24.421875 21.742188 C 24.121094 20.90625 24.179688 21.140625 23.859375 20.417969 C 23.765625 20.207031 23.625 19.992188 23.390625 20 C 23.164063 20.011719 23.039063 20.25 22.984375 20.449219 C 22.785156 21.210938 22.582031 21.355469 22.21875 22.171875 C 22.214844 22.28125 22.136719 22.386719 22.078125 22.484375 C 21.933594 22.738281 21.984375 22.882813 22.269531 22.925781 C 22.5625 22.96875 22.859375 22.996094 23.15625 23 L 30.734375 23 C 30.84375 23 31.007813 23.054688 31 22.832031 C 30.980469 22.15625 31.097656 20.613281 31 20.265625 C 30.945313 20.0625 30.859375 20 30.65625 20 C 29.714844 20.011719 27.269531 20.015625 26.328125 20 Z M 32.890625 20 C 32.847656 19.996094 32.796875 20.011719 32.757813 20.03125 C 32.503906 20.136719 32.253906 20.261719 32 20.375 C 32 20.425781 32 20.476563 32 20.523438 C 32.242188 20.664063 32.480469 20.8125 32.722656 20.9375 C 32.8125 20.984375 32.941406 21.082031 32.972656 20.859375 C 33.007813 20.636719 33.003906 20.371094 32.976563 20.140625 C 32.964844 20.042969 32.929688 20.007813 32.890625 20 Z M 16.890625 21 C 16.847656 20.996094 16.796875 21.011719 16.757813 21.03125 C 16.503906 21.136719 16.253906 21.261719 16 21.375 C 16 21.425781 16 21.476563 16 21.523438 C 16.242188 21.664063 16.480469 21.8125 16.722656 21.9375 C 16.8125 21.984375 16.941406 22.082031 16.972656 21.859375 C 17.007813 21.636719 17.003906 21.371094 16.976563 21.140625 C 16.964844 21.042969 16.929688 21.007813 16.890625 21 Z M 33 22 C 32.972656 22.09375 32.050781 24.59375 32.035156 24.648438 C 31.980469 24.777344 32 24.90625 32.019531 25.035156 C 32.160156 25.96875 32.203125 26.003906 33.113281 26 L 33.5625 26 C 33.777344 26 33.910156 25.925781 33.953125 25.671875 C 34.003906 25.375 34.027344 25.089844 33.941406 24.796875 C 33.882813 24.589844 33.761719 24.167969 33.761719 24.167969 C 33.761719 24.164063 33.757813 24.160156 33.757813 24.15625 C 33.734375 24.066406 33.101563 22.152344 33 22 Z M 16.378906 23 C 16.183594 23.011719 15.996094 23.132813 15.890625 23.363281 C 15.550781 24.097656 15.273438 24.871094 15.027344 25.664063 C 14.96875 25.851563 15 25.921875 15.167969 25.941406 C 15.605469 25.996094 16.042969 25.996094 16.484375 26 C 16.902344 25.992188 17.324219 26.011719 17.742188 25.953125 C 18.042969 25.90625 18.050781 25.910156 17.914063 25.550781 C 17.722656 25.050781 17.511719 24.5625 17.3125 24.070313 C 17.203125 23.796875 17.09375 23.523438 16.929688 23.292969 C 16.78125 23.085938 16.574219 22.988281 16.378906 23 Z M 20.394531 23 C 20.320313 22.996094 20.304688 23.140625 20.289063 23.238281 C 20.179688 23.863281 20.109375 24.503906 20.046875 25.144531 C 19.957031 26.015625 19.957031 26.015625 20.484375 25.996094 C 20.589844 25.996094 20.699219 25.992188 20.800781 25.996094 C 20.984375 25.996094 21.035156 25.882813 20.976563 25.574219 C 20.828125 24.78125 20.675781 23.992188 20.484375 23.222656 C 20.460938 23.140625 20.457031 23.003906 20.394531 23 Z M 36.890625 23 C 36.847656 22.996094 36.796875 23.011719 36.757813 23.03125 C 36.503906 23.136719 36.253906 23.261719 36 23.375 C 36 23.425781 36 23.476563 36 23.523438 C 36.242188 23.664063 36.480469 23.8125 36.722656 23.9375 C 36.8125 23.984375 36.941406 24.082031 36.972656 23.859375 C 37.007813 23.636719 37.003906 23.371094 36.976563 23.140625 C 36.964844 23.042969 36.929688 23.007813 36.890625 23 Z M 22.359375 24 C 22.164063 24 22.101563 24.050781 22.109375 24.246094 C 22.136719 24.847656 22.082031 24.714844 22.019531 25.3125 C 21.964844 25.890625 21.988281 25.996094 22.5625 26 L 31.296875 26 C 31.695313 25.984375 31.582031 25.554688 31.582031 25.554688 C 31.582031 25.554688 31.601563 25.183594 31.441406 24.625 C 31.277344 24.0625 31.285156 24.011719 30.699219 24 Z M 37.015625 25.007813 C 36.925781 24.992188 36.902344 25.125 36.875 25.214844 C 36.761719 25.585938 36.070313 28.316406 35.976563 28.734375 C 35.945313 28.886719 35.976563 28.945313 36.125 28.960938 C 36.414063 28.992188 36.707031 29.015625 37 29 C 37.210938 29 37.421875 29.011719 37.628906 28.996094 C 38 28.96875 38.003906 28.964844 37.921875 28.59375 C 37.890625 28.4375 37.851563 28.28125 37.808594 28.125 C 37.75 27.9375 37.183594 25.742188 37.09375 25.234375 C 37.082031 25.144531 37.085938 25.023438 37.015625 25.007813 Z M 19.683594 27 C 19.484375 27 19.378906 27.058594 19.292969 27.234375 C 19.167969 27.503906 19.023438 27.765625 18.816406 27.980469 C 18.6875 28.113281 18.546875 28.304688 18.335938 28.175781 C 18.117188 28.042969 18.152344 27.820313 18.222656 27.609375 C 18.246094 27.546875 18.277344 27.492188 18.308594 27.4375 C 18.503906 27.070313 18.472656 27.003906 18.066406 27 L 14.167969 27 C 14.007813 27 13.96875 27.007813 14.019531 27.171875 C 14.167969 27.601563 14.226563 28.054688 14.234375 28.511719 C 14.238281 28.980469 14.242188 29 14.703125 29 L 34.761719 29 C 34.960938 28.996094 35.054688 28.90625 34.9375 28.683594 C 34.746094 28.316406 34.617188 27.921875 34.496094 27.53125 C 34.402344 27.21875 34.210938 27.011719 33.871094 27 Z M 10.890625 28 C 10.847656 27.996094 10.796875 28.011719 10.757813 28.03125 C 10.503906 28.136719 10.253906 28.261719 10 28.375 C 10 28.425781 10 28.476563 10 28.523438 C 10.242188 28.664063 10.480469 28.8125 10.722656 28.9375 C 10.8125 28.984375 10.941406 29.082031 10.972656 28.859375 C 11.007813 28.636719 11.003906 28.371094 10.976563 28.140625 C 10.964844 28.042969 10.929688 28.007813 10.890625 28 Z M 14.53125 30 C 14.296875 30 14.179688 30.074219 14.121094 30.285156 C 13.96875 30.839844 14.035156 31.128906 14 31.703125 C 13.984375 31.941406 14.058594 32.003906 14.296875 32 C 15.671875 31.980469 39.671875 32 39.671875 32 C 40.03125 31.996094 40.066406 31.953125 39.917969 31.621094 C 39.757813 31.265625 39.808594 30.96875 39.6875 30.597656 C 39.628906 30.425781 39.523438 30.28125 39.390625 30.15625 C 39.199219 29.972656 39.007813 29.945313 38.808594 30.140625 C 38.683594 30.257813 38.605469 30.375 38.476563 30.484375 C 38.363281 30.585938 38.234375 30.605469 38.160156 30.453125 C 37.988281 30.097656 37.679688 30.003906 37.339844 30 C 37.339844 30 20.808594 30.011719 14.53125 30 Z M 10.875 30 C 10.746094 30.011719 10.617188 30.09375 10.546875 30.242188 C 10.328125 30.707031 10.167969 31.195313 10.015625 31.6875 C 9.972656 31.828125 10.003906 31.90625 10.171875 31.941406 C 10.460938 32 10.746094 31.992188 11.0625 32 C 11.304688 31.984375 11.578125 32.007813 11.847656 31.953125 C 11.964844 31.929688 12.035156 31.894531 11.980469 31.75 C 11.769531 31.210938 11.539063 30.679688 11.230469 30.1875 C 11.140625 30.050781 11.003906 29.992188 10.875 30 Z M 9.507813 33 C 9.359375 33 9.226563 33.03125 9.121094 33.183594 C 8.800781 33.640625 8.453125 34.078125 8.125 34.535156 C 7.929688 34.8125 7.949219 34.960938 8.296875 35 L 22.714844 35 C 23.484375 34.386719 24.445313 34 25.5 34 C 26.558594 34 27.515625 34.382813 28.285156 35 L 39.546875 35 C 40.339844 35 40.871094 35.019531 41.660156 34.9375 C 42.015625 34.902344 42.074219 34.804688 41.90625 34.496094 C 41.710938 34.128906 41.449219 33.808594 41.203125 33.480469 C 40.976563 33.171875 40.6875 33 40.308594 33 Z M 29.234375 36 C 29.625 36.582031 29.867188 37.269531 29.949219 38 L 41.15625 38 C 41.398438 38.003906 41.460938 37.949219 41.421875 37.699219 C 41.363281 37.332031 41.191406 36.652344 41.199219 36.285156 C 41.203125 36.027344 41.109375 36 40.890625 36 Z M 9.0625 36 C 8.84375 36 8.746094 36.027344 8.753906 36.285156 C 8.761719 36.652344 8.589844 37.335938 8.53125 37.699219 C 8.492188 37.949219 8.558594 38.003906 8.796875 38 L 21.050781 38 C 21.132813 37.269531 21.375 36.582031 21.765625 36 Z M 8.515625 39 C 8.332031 39.003906 8.234375 39.097656 8.203125 39.300781 C 8.140625 39.6875 8.058594 40.308594 7.972656 40.6875 C 7.925781 40.90625 7.953125 41.003906 8.21875 41 L 21 41 L 21 39 Z M 30 39 L 30 41 L 41.734375 41 C 42 41.003906 42.027344 40.90625 41.980469 40.6875 C 41.894531 40.308594 41.8125 39.6875 41.75 39.300781 C 41.722656 39.097656 41.621094 39.003906 41.4375 39 Z"/></svg>